# xmcd
#
# Track frame offsets: 
#        150
#        22546
#        40638
#        53634
#        72359
#        92461
#        109054
#        126885
#        144242
#        161174
#
# Disc length: 2231 seconds
#
# Revision: 1
# Processed by: cddbd v1.5.1PL2 Copyright (c) Steve Scherf et al.
# Submitted via: ExactAudioCopy v0.95a5
#
DISCID=7408b50a
DTITLE=Jia Peng-Fang (Ê¹ÝßÛ») - Roman (Ò©Ø¼)
DYEAR=2003
DGENRE=Easy Listening
TTITLE0=Musasi (Main Theme)
TTITLE1=Nuovo Cinema Paradiso
TTITLE2=Tema D' Amore
TTITLE3=Deborah's Theme
TTITLE4=Romance
TTITLE5=äñªòñ´ªÇªÆ (Playing Love)
TTITLE6=Toto E Alfredo
TTITLE7=Malena
TTITLE8=äîáþªÎ Theme
TTITLE9=Musasi (Main Theme) - Reprise
EXTD=YEAR: 2003
EXTT0=
EXTT1=
EXTT2=
EXTT3=
EXTT4=
EXTT5=
EXTT6=
EXTT7=
EXTT8=
EXTT9=
PLAYORDER=
